<?xml version="1.0" encoding="UTF-8" standalone="no"?>
<!DOCTYPE svg PUBLIC "-//W3C//DTD SVG 1.1//EN" "http://www.w3.org/Graphics/SVG/1.1/DTD/svg11.dtd">
<svg xmlns="http://www.w3.org/2000/svg" version="1.1" viewBox="0 0 213 206">
<path fill="#313204" fill-opacity="0.216" d="
  M 111.24 26.70
  C 111.68 25.87 125.27 25.93 126.95 25.96
  C 130.51 26.03 134.03 27.04 137.81 27.55
  C 144.13 28.40 153.90 30.66 159.88 34.29
  C 160.34 34.57 160.62 34.58 161.11 34.44
  A 0.59 0.59 0.0 0 1 161.75 34.64
  C 162.75 35.91 165.71 36.67 167.58 38.15
  A 1.84 1.82 68.0 0 0 168.46 38.53
  C 169.55 38.68 177.52 44.16 178.24 44.92
  C 180.80 47.62 183.75 48.97 186.11 52.01
  Q 187.01 53.17 188.78 54.58
  C 190.47 55.91 191.04 57.30 192.08 58.52
  C 207.79 77.04 214.30 100.19 212.54 124.26
  C 212.29 127.58 211.28 131.64 211.11 135.49
  A 0.23 0.23 0.0 0 1 210.96 135.69
  L 210.69 135.77
  A 0.15 0.13 -89.2 0 0 210.59 135.88
  C 204.63 163.06 185.99 185.36 161.21 197.25
  Q 160.81 197.45 160.62 197.69
  A 1.14 1.12 9.2 0 1 160.04 198.10
  C 155.78 199.43 151.40 201.49 147.46 202.50
  Q 105.66 213.23 70.53 188.95
  Q 69.27 188.08 66.72 185.77
  C 65.07 184.28 63.01 182.98 61.56 181.59
  C 44.57 165.46 33.18 141.82 33.24 118.13
  C 33.26 113.71 32.68 108.64 33.94 104.40
  C 34.39 102.90 34.91 94.31 35.89 93.78
  A 0.61 0.59 -9.9 0 0 36.20 93.36
  Q 36.98 88.84 38.96 84.74
  C 39.32 84.01 39.24 83.80 39.26 83.02
  Q 39.28 82.52 39.54 82.09
  C 41.65 78.64 43.31 74.41 45.04 71.44
  Q 63.50 39.72 99.98 29.01
  Q 106.50 27.10 110.86 26.95
  A 0.45 0.44 -77.3 0 0 111.24 26.70
  Z
  M 120.32 203.01
  C 123.24 203.44 126.75 202.72 128.82 202.57
  Q 140.75 201.75 152.11 198.03
  C 153.84 197.47 155.67 196.08 157.46 195.50
  C 162.04 194.02 165.26 191.94 169.22 189.59
  C 172.37 187.72 175.12 185.92 177.99 183.22
  Q 179.79 181.53 181.76 180.09
  A 1.72 1.71 -7.5 0 0 182.33 179.35
  Q 182.59 178.66 183.32 178.52
  A 1.61 1.57 -72.2 0 0 184.15 178.08
  Q 194.49 167.64 200.32 156.44
  C 202.30 152.65 204.03 147.33 206.14 142.10
  Q 207.18 139.50 207.21 136.61
  A 0.71 0.70 72.2 0 1 207.50 136.04
  C 207.91 135.76 207.99 135.68 208.08 135.15
  C 212.55 109.56 208.94 86.02 193.31 64.90
  Q 168.53 31.42 126.22 29.10
  C 83.54 26.75 46.51 57.32 37.75 98.29
  C 35.47 108.95 35.75 123.13 37.69 133.50
  Q 40.95 150.93 52.90 167.31
  C 53.71 168.42 55.25 169.46 55.98 171.16
  Q 56.18 171.62 56.52 171.98
  L 61.99 177.92
  Q 62.27 178.23 62.65 178.41
  Q 65.02 179.57 66.42 181.94
  Q 66.64 182.31 67.01 182.52
  C 69.04 183.70 71.06 185.73 72.38 186.69
  Q 84.64 195.60 100.05 199.96
  Q 108.35 202.31 116.00 202.54
  Q 117.35 202.58 120.32 203.01
  Z"
/>
<path fill="#989104" fill-opacity="0.604" d="
  M 201.94 115.51
  A 79.44 79.44 0.0 0 1 122.50 194.95
  A 79.44 79.44 0.0 0 1 43.06 115.51
  A 79.44 79.44 0.0 0 1 122.50 36.07
  A 79.44 79.44 0.0 0 1 201.94 115.51
  Z
  M 197.92 115.51
  A 75.43 75.43 0.0 0 0 122.49 40.08
  A 75.43 75.43 0.0 0 0 47.06 115.51
  A 75.43 75.43 0.0 0 0 122.49 190.94
  A 75.43 75.43 0.0 0 0 197.92 115.51
  Z"
/>
<circle fill="#ffec65" cx="122.50" cy="115.50" r="67.40"/>
</svg>
