<svg xmlns="http://www.w3.org/2000/svg" version="1.1" xmlns:xlink="http://www.w3.org/1999/xlink" xmlns:svgjs="http://svgjs.dev/svgjs" width="1440" height="560" preserveAspectRatio="none" viewBox="0 0 1440 560"><g mask="url(&quot;#SvgjsMask1002&quot;)" fill="none"><rect width="1440" height="560" x="0" y="0" fill="rgba(194, 194, 194, 1)"></rect><path d="M1464 560L0 560 L0 376.36Q50.17 306.53, 120 356.7Q163.47 280.17, 240 323.64Q279.55 243.19, 360 282.73Q403.9 254.63, 432 298.53Q480.13 274.66, 504 322.79Q545.96 244.75, 624 286.71Q665.64 256.35, 696 297.98Q761.8 291.78, 768 357.58Q798.94 316.52, 840 347.47Q889.59 277.06, 960 326.65Q1044.16 290.81, 1080 374.98Q1095.79 270.76, 1200 286.55Q1246.95 261.5, 1272 308.45Q1345.28 261.73, 1392 335.01Q1406.62 277.63, 1464 292.25z" fill="rgba(53, 60, 76, 1)"></path><path d="M1488 560L0 560 L0 443.32Q19.26 342.58, 120 361.84Q194.56 316.4, 240 390.97Q318 348.97, 360 426.96Q383.01 329.97, 480 352.98Q551.91 304.89, 600 376.8Q687.09 343.89, 720 430.99Q741.68 332.67, 840 354.35Q885.44 327.79, 912 373.23Q953.52 342.75, 984 384.27Q1027.2 307.47, 1104 350.67Q1193.29 319.96, 1224 409.24Q1274.84 340.08, 1344 390.92Q1366.54 341.46, 1416 363.99Q1457.86 333.85, 1488 375.71z" fill="rgba(97, 99, 102, 1)"></path><path d="M1488 560L0 560 L0 489.79Q27.33 397.12, 120 424.44Q188.38 372.82, 240 441.2Q308.68 389.88, 360 458.56Q434.28 412.84, 480 487.11Q489.77 424.88, 552 434.66Q622.69 385.36, 672 456.05Q757.05 421.1, 792 506.14Q821.92 464.06, 864 493.98Q883.77 441.75, 936 461.53Q977.72 383.25, 1056 424.97Q1100.41 397.38, 1128 441.8Q1199.36 393.16, 1248 464.52Q1331.43 427.95, 1368 511.38Q1387.3 410.68, 1488 429.97z" fill="rgba(171, 171, 171, 1)"></path><path d="M1560 560L0 560 L0 550.37Q40.85 519.22, 72 560.07Q139.55 507.62, 192 575.17Q210.1 521.27, 264 539.37Q310.7 514.07, 336 560.76Q345.24 498, 408 507.23Q436.66 463.89, 480 492.56Q538.83 479.38, 552 538.21Q599.25 465.46, 672 512.7Q698.9 467.61, 744 494.51Q800.14 478.65, 816 534.79Q867.34 466.13, 936 517.47Q996.63 506.1, 1008 566.72Q1051.49 490.21, 1128 533.69Q1178.43 464.13, 1248 514.56Q1340.57 487.13, 1368 579.7Q1379.83 519.53, 1440 531.35Q1506.74 478.09, 1560 544.83z" fill="white"></path></g><defs><mask id="SvgjsMask1002"><rect width="1440" height="560" fill="#ffffff"></rect></mask></defs></svg>