<?xml version="1.0" encoding="UTF-8" standalone="no"?>
<!DOCTYPE svg PUBLIC "-//W3C//DTD SVG 1.1//EN" "http://www.w3.org/Graphics/SVG/1.1/DTD/svg11.dtd">
<svg xmlns="http://www.w3.org/2000/svg" version="1.1" viewBox="0 0 180 200">
<path fill="#ffffff" d="
  M 108.92 96.83
  Q 109.08 96.92 109.21 97.09
  A 0.31 0.31 0.0 0 1 108.96 97.60
  L 95.69 97.50
  A 0.59 0.58 82.1 0 1 95.13 97.07
  C 94.16 93.42 93.34 88.18 91.36 85.58
  C 86.02 78.54 76.75 84.16 76.86 92.04
  Q 76.87 92.54 76.50 92.21
  C 57.56 75.55 77.19 47.61 100.28 57.11
  A 0.51 0.50 22.1 0 0 100.93 56.84
  C 114.10 25.55 160.16 33.49 160.63 67.81
  A 1.02 1.00 -74.0 0 0 161.07 68.63
  Q 172.69 76.49 167.09 89.66
  A 2.12 2.10 -6.4 0 1 166.39 90.53
  L 160.47 94.76
  A 0.40 0.39 -9.6 0 1 159.86 94.33
  C 162.52 85.24 151.97 78.09 146.10 85.55
  C 144.04 88.17 143.30 93.39 142.33 97.07
  A 0.57 0.57 0.0 0 1 141.78 97.50
  L 129.52 97.57
  A 0.27 0.27 0.0 0 1 129.34 97.10
  Q 135.32 91.53 141.20 85.70
  C 147.87 79.09 137.29 67.21 128.14 75.50
  A 0.46 0.45 70.1 0 1 127.38 75.14
  Q 127.65 68.38 127.30 61.33
  C 126.90 53.11 116.81 49.79 112.29 56.68
  C 109.75 60.54 110.68 70.60 110.67 75.28
  Q 110.67 75.78 110.30 75.45
  C 105.31 70.86 97.54 71.71 95.68 78.54
  C 93.87 85.17 103.81 92.12 108.28 96.41
  Q 108.28 96.42 108.92 96.83
  Z"
/>
<path fill="#b2b3b3" fill-opacity="0.706" d="
  M 105.77 77.48
  C 108.70 79.61 111.26 83.15 114.27 84.76
  A 0.30 0.30 0.0 0 0 114.71 84.49
  Q 114.76 72.59 114.77 60.82
  C 114.78 56.47 122.93 55.24 123.23 61.76
  Q 123.45 66.60 123.14 85.03
  Q 123.13 85.53 123.53 85.22
  C 126.29 83.04 132.17 75.56 135.91 76.74
  C 139.09 77.75 139.56 81.53 137.30 83.73
  Q 130.49 90.36 123.62 96.93
  A 1.12 1.11 -22.3 0 0 123.28 97.73
  L 123.19 120.28
  A 0.27 0.27 0.0 0 0 123.59 120.51
  C 126.89 118.61 143.11 110.28 143.77 107.59
  Q 145.84 99.16 147.97 90.75
  C 149.11 86.28 154.35 84.93 155.93 89.65
  C 156.79 92.21 154.25 99.58 153.70 102.57
  Q 153.61 103.07 154.04 102.80
  Q 163.03 97.25 171.91 91.62
  C 177.83 87.87 181.66 95.25 177.01 98.26
  Q 167.65 104.29 158.39 110.14
  A 0.43 0.43 0.0 0 0 158.51 110.92
  Q 163.57 112.23 168.50 113.78
  C 173.76 115.43 172.82 123.43 165.64 121.51
  Q 156.84 119.14 148.11 116.55
  A 1.15 1.13 -51.4 0 0 147.21 116.66
  L 127.76 127.90
  Q 127.09 128.28 127.76 128.66
  L 147.28 139.87
  A 1.20 1.19 -37.2 0 0 148.17 139.99
  Q 157.66 137.49 166.99 134.73
  C 171.33 133.45 174.22 140.59 168.72 142.66
  Q 164.06 144.41 158.76 145.67
  A 0.49 0.49 0.0 0 0 158.62 146.56
  Q 167.81 152.26 177.11 158.38
  C 181.56 161.31 177.78 168.64 172.15 165.12
  Q 163.21 159.55 154.18 153.71
  A 0.37 0.37 0.0 0 0 153.62 154.11
  C 154.39 157.18 156.68 163.60 156.13 166.53
  C 155.40 170.47 149.40 171.09 148.34 166.93
  Q 145.97 157.64 143.69 148.31
  C 143.33 146.82 126.50 137.71 123.96 136.25
  A 0.51 0.51 0.0 0 0 123.19 136.70
  L 123.28 159.18
  A 1.21 1.21 0.0 0 0 123.68 160.08
  Q 134.28 169.86 137.92 173.80
  C 141.39 177.55 135.50 183.11 130.93 178.41
  Q 127.54 174.93 123.68 172.03
  Q 123.28 171.73 123.28 172.23
  Q 123.22 184.07 123.23 195.72
  C 123.24 201.10 114.73 201.80 114.76 194.45
  Q 114.79 183.23 114.69 172.01
  Q 114.68 171.51 114.29 171.82
  Q 110.90 174.50 107.21 178.46
  C 102.79 183.19 95.69 177.95 101.35 172.52
  Q 107.90 166.25 114.34 159.89
  A 1.36 1.35 -22.3 0 0 114.75 158.92
  L 114.75 136.23
  A 0.47 0.46 -15.0 0 0 114.05 135.83
  L 93.97 147.37
  A 1.27 1.27 0.0 0 0 93.36 148.20
  Q 91.08 157.79 88.58 167.28
  C 87.65 170.78 82.34 170.33 81.11 167.14
  C 80.09 164.47 82.67 156.92 83.48 154.04
  A 0.30 0.29 81.3 0 0 83.04 153.71
  Q 74.89 158.95 66.74 164.11
  C 63.16 166.38 59.62 167.82 57.98 162.49
  Q 57.35 160.45 59.92 158.73
  Q 69.24 152.48 78.42 146.64
  A 0.55 0.54 -53.9 0 0 78.27 145.65
  C 74.68 144.72 61.33 142.58 66.05 136.06
  Q 67.44 134.14 70.64 134.99
  C 73.17 135.66 88.61 140.40 89.83 139.73
  Q 99.70 134.35 109.55 128.63
  A 0.40 0.40 0.0 0 0 109.55 127.94
  L 89.97 116.63
  A 1.12 1.11 -37.8 0 0 89.08 116.52
  Q 80.42 118.98 71.83 121.44
  C 68.53 122.39 64.87 121.67 65.24 117.51
  C 65.61 113.39 74.79 111.89 78.01 111.08
  Q 79.63 110.67 78.22 109.77
  Q 70.38 104.78 61.96 99.36
  C 58.90 97.40 56.24 95.00 59.27 91.54
  C 60.78 89.81 63.08 90.17 64.98 91.35
  Q 74.21 97.06 83.34 103.03
  A 0.25 0.25 0.0 0 0 83.72 102.75
  Q 82.29 97.89 81.27 93.01
  C 79.83 86.13 87.43 83.94 89.17 90.81
  Q 91.38 99.53 93.51 108.24
  C 93.86 109.68 111.54 119.27 114.18 120.78
  A 0.38 0.38 0.0 0 0 114.75 120.45
  L 114.75 97.76
  A 1.16 1.15 -68.0 0 0 114.40 96.93
  Q 107.79 90.48 101.09 84.17
  C 96.85 80.17 101.43 74.34 105.77 77.48
  Z"
/>
</svg>
