<svg xmlns="http://www.w3.org/2000/svg" version="1.1" xmlns:xlink="http://www.w3.org/1999/xlink" xmlns:svgjs="http://svgjs.dev/svgjs" width="1440" height="560" preserveAspectRatio="none" viewBox="0 0 1440 560"><g mask="url(&quot;#SvgjsMask1378&quot;)" fill="none"><rect width="1440" height="560" x="0" y="0" fill="#0e2a47"></rect><use xlink:href="#SvgjsG1380" transform="translate(0, 0)" fill="#0f457b"></use></g><defs><mask id="SvgjsMask1378"><rect width="1440" height="560" fill="#ffffff"></rect></mask><g id="SvgjsG1379"><path d="M3.474 10.969C3.474 7.665 8.077 0.361 8.077 0.361s4.602 7.305 4.602 10.608c0 2.247-1.506 4.771-4.602 4.771-3.095 0-4.603-2.524-4.603-4.771z" fill-rule="evenodd"></path></g><g id="SvgjsG1380"><use xlink:href="#SvgjsG1379" transform="translate(0, 0) scale(2.6)" fill="#0f457b"></use><use xlink:href="#SvgjsG1379" transform="translate(0, 166.4) scale(2.6)" fill="#0f457b"></use><use xlink:href="#SvgjsG1379" transform="translate(0, 332.8) scale(2.6)" fill="#0f457b"></use><use xlink:href="#SvgjsG1379" transform="translate(0, 499.20000000000005) scale(2.6)" fill="#0f457b"></use><use xlink:href="#SvgjsG1379" transform="translate(166.4, 0) scale(2.6)" fill="#0f457b"></use><use xlink:href="#SvgjsG1379" transform="translate(166.4, 166.4) scale(2.6)" fill="#0f457b"></use><use xlink:href="#SvgjsG1379" transform="translate(166.4, 332.8) scale(2.6)" fill="#0f457b"></use><use xlink:href="#SvgjsG1379" transform="translate(166.4, 499.20000000000005) scale(2.6)" fill="#0f457b"></use><use xlink:href="#SvgjsG1379" transform="translate(332.8, 0) scale(2.6)" fill="#0f457b"></use><use xlink:href="#SvgjsG1379" transform="translate(332.8, 166.4) scale(2.6)" fill="#0f457b"></use><use xlink:href="#SvgjsG1379" transform="translate(332.8, 332.8) scale(2.6)" fill="#0f457b"></use><use xlink:href="#SvgjsG1379" transform="translate(332.8, 499.20000000000005) scale(2.6)" fill="#0f457b"></use><use xlink:href="#SvgjsG1379" transform="translate(499.20000000000005, 0) scale(2.6)" fill="#0f457b"></use><use xlink:href="#SvgjsG1379" transform="translate(499.20000000000005, 166.4) scale(2.6)" fill="#0f457b"></use><use xlink:href="#SvgjsG1379" transform="translate(499.20000000000005, 332.8) scale(2.6)" fill="#0f457b"></use><use xlink:href="#SvgjsG1379" transform="translate(499.20000000000005, 499.20000000000005) scale(2.6)" fill="#0f457b"></use><use xlink:href="#SvgjsG1379" transform="translate(665.6, 0) scale(2.6)" fill="#0f457b"></use><use xlink:href="#SvgjsG1379" transform="translate(665.6, 166.4) scale(2.6)" fill="#0f457b"></use><use xlink:href="#SvgjsG1379" transform="translate(665.6, 332.8) scale(2.6)" fill="#0f457b"></use><use xlink:href="#SvgjsG1379" transform="translate(665.6, 499.20000000000005) scale(2.6)" fill="#0f457b"></use><use xlink:href="#SvgjsG1379" transform="translate(832, 0) scale(2.6)" fill="#0f457b"></use><use xlink:href="#SvgjsG1379" transform="translate(832, 166.4) scale(2.6)" fill="#0f457b"></use><use xlink:href="#SvgjsG1379" transform="translate(832, 332.8) scale(2.6)" fill="#0f457b"></use><use xlink:href="#SvgjsG1379" transform="translate(832, 499.20000000000005) scale(2.6)" fill="#0f457b"></use><use xlink:href="#SvgjsG1379" transform="translate(998.4000000000001, 0) scale(2.6)" fill="#0f457b"></use><use xlink:href="#SvgjsG1379" transform="translate(998.4000000000001, 166.4) scale(2.6)" fill="#0f457b"></use><use xlink:href="#SvgjsG1379" transform="translate(998.4000000000001, 332.8) scale(2.6)" fill="#0f457b"></use><use xlink:href="#SvgjsG1379" transform="translate(998.4000000000001, 499.20000000000005) scale(2.6)" fill="#0f457b"></use><use xlink:href="#SvgjsG1379" transform="translate(1164.8, 0) scale(2.6)" fill="#0f457b"></use><use xlink:href="#SvgjsG1379" transform="translate(1164.8, 166.4) scale(2.6)" fill="#0f457b"></use><use xlink:href="#SvgjsG1379" transform="translate(1164.8, 332.8) scale(2.6)" fill="#0f457b"></use><use xlink:href="#SvgjsG1379" transform="translate(1164.8, 499.20000000000005) scale(2.6)" fill="#0f457b"></use><use xlink:href="#SvgjsG1379" transform="translate(1331.2, 0) scale(2.6)" fill="#0f457b"></use><use xlink:href="#SvgjsG1379" transform="translate(1331.2, 166.4) scale(2.6)" fill="#0f457b"></use><use xlink:href="#SvgjsG1379" transform="translate(1331.2, 332.8) scale(2.6)" fill="#0f457b"></use><use xlink:href="#SvgjsG1379" transform="translate(1331.2, 499.20000000000005) scale(2.6)" fill="#0f457b"></use></g></defs></svg>