<?xml version="1.0" encoding="UTF-8" standalone="no"?>
<!DOCTYPE svg PUBLIC "-//W3C//DTD SVG 1.1//EN" "http://www.w3.org/Graphics/SVG/1.1/DTD/svg11.dtd">
<svg xmlns="http://www.w3.org/2000/svg" version="1.1" viewBox="0 0 202 227">
<path fill="#ffffff" d="
  M 83.85 122.27
  C 85.42 125.04 88.18 124.58 88.40 128.76
  Q 88.42 129.21 88.67 129.60
  Q 92.21 135.19 98.47 132.49
  A 0.99 0.96 -42.7 0 1 99.27 132.51
  L 105.80 135.72
  Q 106.38 136.00 105.80 136.30
  L 99.53 139.55
  A 1.20 1.19 -46.5 0 1 98.52 139.58
  C 93.17 137.25 88.50 139.69 87.92 145.66
  A 0.99 0.98 79.9 0 1 87.39 146.43
  Q 83.85 148.19 83.07 152.04
  A 0.70 0.70 0.0 0 1 82.37 152.61
  C 75.53 152.47 67.87 153.02 61.75 151.49
  C 39.67 145.94 28.15 122.22 37.23 101.09
  C 45.35 82.18 67.81 74.21 86.61 83.31
  A 0.47 0.46 -66.1 0 0 87.24 83.06
  C 108.80 27.95 188.09 42.75 187.67 101.80
  A 0.89 0.89 0.0 0 0 188.10 102.56
  C 207.64 114.21 205.42 143.91 183.55 151.12
  C 176.08 153.59 164.95 152.51 156.49 152.51
  A 0.72 0.71 84.0 0 1 155.79 151.94
  Q 155.01 148.30 151.74 146.59
  A 1.28 1.24 6.1 0 1 151.11 145.83
  C 150.67 144.43 150.77 143.20 149.92 141.99
  Q 146.35 136.87 140.38 139.55
  A 1.12 1.12 0.0 0 1 139.38 139.51
  L 133.55 136.32
  Q 132.99 136.02 133.55 135.72
  L 139.53 132.52
  A 1.08 1.05 42.2 0 1 140.46 132.49
  C 146.12 135.03 150.18 131.89 150.92 126.25
  A 1.00 0.99 -10.5 0 1 151.43 125.52
  C 161.27 120.28 152.80 107.71 144.36 113.48
  A 0.88 0.88 0.0 0 1 143.48 113.55
  C 138.20 111.04 133.49 114.06 132.97 119.61
  A 1.08 1.06 -12.9 0 1 132.45 120.43
  L 127.17 123.64
  Q 126.50 124.05 126.50 123.26
  L 126.50 116.86
  A 1.05 1.05 0.0 0 1 126.98 115.98
  C 131.49 113.08 131.43 106.90 126.93 103.97
  A 0.87 0.85 17.8 0 1 126.53 103.21
  C 126.75 93.13 113.43 91.55 112.36 103.26
  A 1.08 1.03 -15.9 0 1 111.90 104.04
  C 107.09 107.34 107.55 112.86 112.11 116.29
  A 0.98 0.97 -71.9 0 1 112.50 117.07
  L 112.50 123.41
  Q 112.50 124.19 111.83 123.78
  L 106.40 120.45
  A 1.08 1.06 -78.1 0 1 105.89 119.65
  C 105.23 113.88 100.75 111.06 95.26 113.53
  A 0.96 0.94 -40.6 0 1 94.38 113.47
  C 87.97 109.40 80.22 115.84 83.85 122.27
  Z"
/>
<path fill="#ffffff" d="
  M 101.78 122.37
  L 115.79 130.44
  A 0.48 0.47 -75.2 0 0 116.50 130.02
  L 116.50 113.78
  A 0.65 0.64 3.0 0 0 115.92 113.14
  C 113.37 112.87 111.66 110.93 112.89 108.59
  C 113.57 107.31 114.74 107.24 116.03 106.87
  A 0.64 0.63 -9.4 0 0 116.49 106.24
  C 116.42 104.33 115.99 98.19 119.73 99.03
  C 123.18 99.81 122.69 103.65 122.33 106.26
  A 0.54 0.54 0.0 0 0 122.74 106.85
  L 124.75 107.32
  A 1.49 1.48 -9.6 0 1 125.64 107.95
  Q 127.21 110.39 125.33 112.28
  A 1.87 1.81 -73.4 0 1 124.46 112.77
  L 122.98 113.09
  A 0.64 0.62 -6.4 0 0 122.48 113.70
  L 122.46 130.22
  A 0.35 0.35 0.0 0 0 122.98 130.52
  L 137.41 122.16
  A 0.62 0.61 -29.2 0 0 137.65 121.34
  L 137.19 120.49
  A 1.70 1.65 35.9 0 1 137.01 119.46
  C 137.60 115.69 140.93 116.00 142.95 118.46
  A 0.55 0.55 0.0 0 0 143.67 118.58
  C 145.19 117.63 147.84 115.69 149.61 116.14
  C 151.37 116.59 152.39 118.93 151.42 120.53
  C 150.66 121.79 147.92 122.98 146.57 123.83
  A 0.64 0.62 -27.8 0 0 146.32 124.61
  L 146.84 125.87
  A 1.59 1.59 0.0 0 1 146.90 126.91
  C 145.90 130.49 143.02 129.78 141.09 127.60
  A 0.67 0.66 54.4 0 0 140.26 127.46
  L 125.89 135.75
  A 0.30 0.30 0.0 0 0 125.89 136.27
  L 140.32 144.62
  A 0.51 0.50 -57.1 0 0 140.99 144.47
  C 142.66 141.99 146.33 141.92 146.88 145.15
  Q 146.97 145.69 146.78 146.21
  L 146.35 147.40
  A 0.60 0.59 26.6 0 0 146.59 148.11
  L 151.17 151.14
  A 1.23 1.22 -77.2 0 1 151.72 152.02
  C 152.64 158.76 145.87 154.81 143.63 153.40
  A 0.48 0.47 -57.8 0 0 142.96 153.56
  C 140.57 157.49 135.23 154.42 137.58 150.56
  A 0.53 0.52 -59.1 0 0 137.40 149.83
  L 122.90 141.46
  A 0.26 0.25 -74.3 0 0 122.52 141.68
  L 122.45 158.28
  A 0.50 0.49 4.6 0 0 122.88 158.78
  C 126.78 159.28 127.97 164.00 123.75 164.86
  Q 123.38 164.94 123.04 165.09
  A 0.71 0.70 -9.6 0 0 122.61 165.69
  L 122.20 171.17
  A 2.11 2.11 0.0 0 1 119.81 173.11
  C 115.57 172.55 116.49 168.74 116.48 165.76
  A 0.65 0.65 0.0 0 0 116.00 165.13
  C 113.45 164.42 111.18 163.14 113.21 160.06
  A 1.46 1.44 -80.5 0 1 114.07 159.44
  L 115.97 158.96
  A 0.71 0.71 0.0 0 0 116.50 158.27
  L 116.50 141.85
  Q 116.50 141.15 115.89 141.50
  L 101.45 149.85
  A 0.54 0.53 59.7 0 0 101.26 150.59
  C 103.46 154.37 98.61 157.48 96.03 153.55
  A 0.54 0.52 57.9 0 0 95.33 153.38
  C 93.92 154.19 91.15 156.17 89.58 155.93
  C 87.86 155.67 86.59 153.73 87.19 152.09
  C 87.78 150.46 90.80 149.01 92.30 148.20
  A 0.57 0.57 0.0 0 0 92.57 147.50
  C 90.88 142.93 95.57 140.60 97.82 144.46
  A 0.51 0.51 0.0 0 0 98.51 144.64
  L 112.84 136.36
  A 0.42 0.42 0.0 0 0 112.84 135.64
  L 98.60 127.43
  A 0.56 0.55 30.6 0 0 97.85 127.62
  C 95.48 131.50 90.25 128.33 92.53 124.63
  A 0.52 0.52 0.0 0 0 92.38 123.93
  C 90.07 122.35 85.37 120.92 87.71 117.05
  A 2.39 2.38 -59.9 0 1 90.92 116.19
  L 95.33 118.63
  A 0.51 0.50 30.3 0 0 96.00 118.46
  C 98.59 114.47 103.04 117.29 101.51 121.66
  A 0.60 0.59 24.8 0 0 101.78 122.37
  Z"
/>
<path fill="#ffffff" d="
  M 106.37 152.61
  A 0.50 0.50 0.0 0 1 106.11 151.68
  L 111.89 148.38
  A 0.41 0.41 0.0 0 1 112.50 148.74
  L 112.50 151.85
  A 0.61 0.61 0.0 0 1 111.90 152.46
  L 106.37 152.61
  Z"
/>
<path fill="#ffffff" d="
  M 127.16 148.64
  C 128.54 149.29 132.08 150.93 132.84 152.06
  A 0.39 0.39 0.0 0 1 132.50 152.67
  L 126.88 152.43
  A 0.48 0.48 0.0 0 1 126.42 151.94
  L 126.52 149.03
  A 0.45 0.45 0.0 0 1 127.16 148.64
  Z"
/>
<rect fill="#ade8ff" x="-2.99" y="-12.41" transform="translate(160.94,173.61) rotate(15.0)" width="5.98" height="24.82" rx="2.91"/>
<rect fill="#ade8ff" x="-3.00" y="-19.39" transform="translate(82.00,180.50) rotate(15.0)" width="6.00" height="38.78" rx="2.94"/>
<rect fill="#ade8ff" x="-3.00" y="-19.39" transform="translate(129.94,180.68) rotate(15.0)" width="6.00" height="38.78" rx="2.94"/>
<rect fill="#ade8ff" x="-3.00" y="-28.39" transform="translate(142.27,189.40) rotate(15.0)" width="6.00" height="56.78" rx="2.95"/>
<rect fill="#ade8ff" x="-3.00" y="-28.41" transform="translate(94.94,189.61) rotate(15.0)" width="6.00" height="56.82" rx="2.95"/>
<rect fill="#ade8ff" x="-3.00" y="-24.86" transform="translate(109.26,201.81) rotate(15.0)" width="6.00" height="49.72" rx="2.94"/>
</svg>
