<svg xmlns="http://www.w3.org/2000/svg" version="1.1" xmlns:xlink="http://www.w3.org/1999/xlink" xmlns:svgjs="http://svgjs.dev/svgjs" width="1440" height="560" preserveAspectRatio="none" viewBox="0 0 1440 560"><g mask="url(&quot;#SvgjsMask2753&quot;)" fill="none"><rect width="1440" height="560" x="0" y="0" fill="rgba(223, 245, 255, 1)"></rect><circle r="6.525" cx="627.605" cy="531.615" filter="url(#SvgjsFilter2754)" fill="rgba(51, 121, 194, 0.58)"></circle><circle r="7.655" cx="802.165" cy="225.855" filter="url(#SvgjsFilter2754)" fill="rgba(51, 121, 194, 0.58)"></circle><circle r="6.57" cx="881.7" cy="75.91999999999999" filter="url(#SvgjsFilter2754)" fill="rgba(51, 121, 194, 0.58)"></circle><circle r="4.675" cx="1122.5149999999999" cy="316.745" filter="url(#SvgjsFilter2754)" fill="rgba(51, 121, 194, 0.58)"></circle><circle r="7.53" cx="701.88" cy="354.57" filter="url(#SvgjsFilter2754)" fill="rgba(51, 121, 194, 0.58)"></circle><circle r="6.195" cx="977.595" cy="374.905" filter="url(#SvgjsFilter2754)" fill="rgba(51, 121, 194, 0.58)"></circle><circle r="6.495" cx="885.355" cy="515.285" filter="url(#SvgjsFilter2754)" fill="rgba(51, 121, 194, 0.58)"></circle><circle r="7.245" cx="1093.495" cy="232.835" filter="url(#SvgjsFilter2754)" fill="rgba(51, 121, 194, 0.58)"></circle><circle r="7.165" cx="540.015" cy="290.685" filter="url(#SvgjsFilter2754)" fill="rgba(51, 121, 194, 0.58)"></circle><circle r="7.8" cx="1075.56" cy="546.52" filter="url(#SvgjsFilter2754)" fill="rgba(51, 121, 194, 0.58)"></circle><circle r="5.435" cx="646.185" cy="491.035" filter="url(#SvgjsFilter2754)" fill="rgba(51, 121, 194, 0.58)"></circle><circle r="6.335" cx="1047.055" cy="196.495" filter="url(#SvgjsFilter2754)" fill="rgba(51, 121, 194, 0.58)"></circle><circle r="8.75" cx="179.6" cy="302.15" filter="url(#SvgjsFilter2754)" fill="rgba(51, 121, 194, 0.58)"></circle><circle r="7.06" cx="818.77" cy="293.18" filter="url(#SvgjsFilter2754)" fill="rgba(51, 121, 194, 0.58)"></circle><circle r="7.77" cx="223.07000000000002" cy="305.84999999999997" filter="url(#SvgjsFilter2754)" fill="rgba(51, 121, 194, 0.58)"></circle><circle r="5.845" cx="977.355" cy="431.14500000000004" filter="url(#SvgjsFilter2754)" fill="rgba(51, 121, 194, 0.58)"></circle><circle r="6.89" cx="225.76" cy="501.41999999999996" filter="url(#SvgjsFilter2754)" fill="rgba(51, 121, 194, 0.58)"></circle><circle r="5.5" cx="1419.77" cy="448.87" filter="url(#SvgjsFilter2754)" fill="rgba(51, 121, 194, 0.58)"></circle><circle r="6.66" cx="133.52" cy="179.92" filter="url(#SvgjsFilter2754)" fill="rgba(51, 121, 194, 0.58)"></circle><circle r="8.79" cx="128.56" cy="183.38" filter="url(#SvgjsFilter2754)" fill="rgba(51, 121, 194, 0.58)"></circle><path d="M1201.6 245.1L1223.7 241.4 1219.5 254.2C1218.9 255.5 1219.7 257.4 1221.4 258.4 1223.2 258.6 1225.1 257.8 1225.2 256L1231 240.1 1248.1 236.5 1236 269.6C1235.8 271.4 1236.6 273.3 1237.9 273.8 1240.1 274.5 1242 273.7 1242.1 271.9L1255.5 235.3 1281.7 230.5 1268.2 258.1 1297.5 249 1288.7 274.2 1250.4 281.6C1250 281.1 1249.5 281.6 1249.1 282 1248.1 282.8 1247.5 284.1 1247.9 285.5 1248.2 286.9 1249.9 287.9 1251.8 288.1L1286.3 281.3 1280.1 297.6 1263.5 300.8C1262.6 300.7 1262.1 301.2 1261.6 301.6 1261.1 302 1260.5 303.3 1260.9 304.7 1261.2 306.1 1263 307.1 1264.3 306.8L1277.7 304.7 1270.5 325.9C1269.5 327.6 1270.7 329.1 1272.5 330.1 1273.8 330.7 1275.7 329.9 1276.3 327.7L1283.8 307 1292.6 317.2C1293.8 318.7 1296.1 318.4 1297.1 317.6 1298.5 316.3 1298.7 314.5 1297.4 313L1286.2 299.9 1292.5 283.6 1314.9 309.9C1316.2 311.4 1318 311.5 1319.5 310.3 1320.4 309.4 1321.1 307.2 1319.8 305.7L1294.9 276.5 1303.7 251.3 1320.8 276.3 1327.6 246.9 1345.1 267.3 1332.2 303.5C1331.6 305.8 1332.9 307.2 1334.2 307.8 1335.5 308.3 1337.4 307.6 1338.4 305.9L1349.7 272.7 1360.9 285.8 1355.5 302.2C1354.5 303.9 1355.2 305.8 1357.4 306.5 1358.7 307 1360.6 306.3 1361.3 304L1365.9 291.7 1380.4 308.7C1381.7 310.2 1383.5 310.3 1384.9 309.1S1386.5 306 1385.3 304.6L1370.7 287.5 1383.7 284.9C1385.9 284.6 1387 282.9 1386.6 281.5 1386.4 279.2 1384.6 278.2 1382.8 279L1365.7 281.7 1354.5 268.5 1389 262.7C1390.9 261.9 1392 260.2 1391.6 258.8 1391.4 256.5 1389.6 255.4 1387.7 256.2L1350 263.2 1332.5 242.7 1362.7 240.6 1340.7 219.8 1366.9 215 1391.9 244.3C1393.1 245.7 1395.4 245.5 1396.4 244.6 1397.8 243.4 1398 241.6 1396.7 240.1L1373.9 213.3 1391.4 210.2 1402.6 223.3C1403.9 224.8 1405.7 224.9 1407.1 223.7 1408.1 222.8 1408.7 220.6 1407.5 219.2L1398.8 208.9 1420.4 204.8C1422.7 204.5 1423.8 202.8 1423 200.9 1422.7 199.5 1421.4 198 1419.5 198.8L1397.4 202.5 1401.6 189.7C1402.2 188.3 1401.4 186.5 1400.1 185.9 1398.8 185.3 1397.4 185.7 1396.9 186.1 1396.4 186.5 1396 186.9 1395.9 187.8L1390.1 203.7 1373 207.4 1385.2 174.3C1385.3 172.5 1384.5 170.6 1383.2 170 1381.9 169.5 1380.5 169.8 1379.5 170.7 1379.1 171.1 1379.1 171.1 1379 172L1365.6 208.6 1339.4 213.3 1352.9 185.8 1323.6 194.8 1332.4 169.6 1370.7 162.2C1372.1 161.9 1373.5 160.6 1373.3 158.3 1372.9 157 1371.2 155.9 1369.4 155.8L1334.8 162.6 1341.1 146.3 1357.7 143C1359.5 143.2 1360.5 141.5 1360.2 139.2 1359.9 137.8 1358.2 136.7 1356.4 136.6L1343.4 139.2 1350.6 118C1351.6 116.2 1350.4 114.8 1348.6 113.7 1347.7 113.7 1346.3 114 1345.9 114.4 1345.4 114.8 1344.9 115.2 1344.8 116.1L1337.3 136.9 1328.5 126.7C1327.3 125.2 1325 125.5 1324 126.3L1324 126.3C1322.6 127.6 1322.4 129.4 1323.7 130.8L1334.9 144 1328.6 160.3 1306.2 134C1304.9 132.5 1303.1 132.4 1301.7 133.6S1300.1 136.7 1301.3 138.1L1326.2 167.3 1317.4 192.5 1300.3 167.6 1293.5 197 1276 176.5 1288.9 140.3C1289.5 138.1 1288.3 136.6 1286.9 136.1 1285.6 135.5 1283.8 136.3 1282.7 138L1271 170.7 1260.2 158 1265.6 141.7C1266.7 139.9 1265.9 138 1263.7 137.4 1262.4 136.9 1260.5 137.6 1259.4 139.3L1255.3 152.2 1240.7 135.1C1239.5 133.7 1237.7 133.5 1236.2 134.8S1234.6 137.8 1235.8 139.3L1250.4 156.3 1237.5 158.9C1236.6 158.9 1236.1 159.3 1235.6 159.7 1234.6 160.5 1234.5 161.4 1234.5 162.3 1234.7 164.6 1236.5 165.7 1238.4 164.9L1255.4 162.2 1266.6 175.3 1232.1 181.2C1231.6 181.6 1231.1 182 1230.6 182.5 1229.6 183.3 1229.6 184.2 1229.5 185.1 1229.8 187.4 1231.5 188.4 1233.4 187.7L1271.2 180.7 1288.6 201.1 1258.5 203.3 1280.4 224.1 1254.2 228.8 1229.3 199.6C1228 198.1 1225.7 198.4 1224.7 199.2 1223.3 200.5 1223.1 202.3 1224.4 203.8L1246.8 230 1229.7 233.7 1218.5 220.5C1217.3 219.1 1215.5 218.9 1214 220.2S1212.4 223.2 1213.6 224.7L1222.4 234.9 1200.7 239.1C1199.8 239 1199.3 239.4 1198.8 239.9 1198.3 240.3 1197.8 241.6 1198.1 243 1198.5 244.4 1199.7 245.8 1201.6 245.1ZM1273 208.5L1297.7 206.8 1303.2 182.8 1317.5 203.4 1340.7 196.2 1330.4 218.5 1348.1 235.3 1323.4 237 1317.9 261.1 1304.1 240.9 1280.4 247.7 1291.2 225.8 1273 208.5Z" fill="rgba(51, 121, 194, 0.58)"></path><path d="M1243.4 432L1233.8 426.2 1239.6 422.7C1240.2 422.4 1240.5 421.4 1240.2 420.5 1239.5 419.8 1238.6 419.5 1237.9 420.1L1230.6 424.3 1222.9 420.2 1238.2 411.5C1238.9 410.9 1239.2 409.9 1238.9 409.3 1238.2 408.3 1237.3 408 1236.6 408.6L1219.7 418.3 1208.2 411.6 1222.2 405.5 1208.1 399.4 1219.6 392.7 1236.6 402.2C1236.6 402.5 1236.9 402.5 1237.3 402.5 1237.9 402.5 1238.5 402.2 1238.9 401.6 1239.2 400.9 1238.8 400 1238.2 399.3L1222.8 390.7 1230.5 386.6 1237.9 390.7C1238.2 391 1238.5 391 1238.8 391 1239.1 391 1239.8 390.7 1240.1 390.1 1240.4 389.4 1240.1 388.5 1239.5 388.1L1233.7 384.6 1243.3 378.8C1244.2 378.5 1244.2 377.6 1243.9 376.6 1243.6 376 1242.6 375.6 1241.7 376.3L1232.1 381.8 1232.1 375C1232 374.1 1231.1 373.4 1230.4 373.4 1229.5 373.4 1228.8 374.1 1228.9 375L1228.9 383.7 1221.2 387.9 1221.2 370.6C1221.2 369.6 1220.5 369 1219.6 369 1218.9 369 1218 369.6 1218 370.6L1218 389.8 1206.5 396.6 1208.1 381.5 1195.9 390.5 1195.9 377.1 1212.5 367.4C1213.5 366.8 1213.5 365.8 1213.1 365.2 1212.8 364.5 1211.9 364.2 1210.9 364.5L1195.9 373.5 1195.9 364.9 1203.2 360.4C1204.2 360.1 1204.5 359.1 1203.8 358.2 1203.5 357.5 1202.6 357.2 1201.6 357.8L1195.9 361.1 1195.8 349.9C1195.8 348.9 1195.2 348.3 1194.2 348.3S1192.6 348.9 1192.6 349.9L1192.7 361.1 1186.9 357.9C1185.9 357.3 1185 357.6 1184.6 358.2 1184 359.2 1184.3 360.1 1185.3 360.5L1192.7 364.9 1192.7 373.6 1177.6 364.6C1176.7 364.3 1175.7 364.6 1175.4 365.3 1174.7 366.2 1175.1 367.2 1176 367.5L1192.7 377.1 1192.7 390.5 1180.6 381.6 1182.2 396.6 1170.7 389.9 1170.6 370.7C1170.6 369.8 1169.6 369.1 1169 369.1 1168 369.1 1167.4 369.8 1167.4 370.7L1167.5 388.3 1159.8 383.9 1159.7 375.3C1159.7 374.3 1159.1 373.7 1158.1 373.7 1157.5 373.7 1156.5 374.3 1156.5 375.3L1156.6 382 1146.9 376.6C1146 375.9 1145 376.3 1144.7 377.2 1144.4 377.9 1144.4 378.8 1145.3 379.1L1155 384.9 1149.2 388.4C1148.6 388.7 1148.3 389.7 1148.6 390.3 1148.9 391 1149.5 391.3 1149.9 391.3 1150.2 391.3 1150.5 391.3 1150.8 391L1158.2 386.8 1165.9 390.9 1150.5 399.6C1149.9 400.2 1149.6 401.2 1149.9 401.8 1150.2 402.5 1150.9 402.8 1151.5 402.8 1151.8 402.8 1151.8 402.8 1152.1 402.5L1169.1 392.8 1180.6 399.5 1166.5 405.6 1180.6 411.7 1169.1 418.4 1152.2 408.9C1151.5 408.6 1150.6 408.6 1149.9 409.5 1149.6 410.2 1149.9 411.1 1150.6 411.8L1165.9 420.4 1158.3 424.5 1150.9 420.4C1150.3 419.8 1149.3 420.1 1148.7 421 1148.4 421.7 1148.7 422.6 1149.3 423.3L1155.1 426.5 1145.5 432.3C1144.5 432.6 1144.5 433.5 1144.9 434.5 1145.2 434.8 1145.8 435.1 1146.2 435.1 1146.5 435.1 1146.8 435.1 1147.1 434.8L1156.7 429.3 1156.7 436.1C1156.7 437 1157.7 437.7 1158.3 437.7L1158.3 437.7C1159.3 437.7 1159.9 437 1159.9 436.1L1159.9 427.4 1167.6 423.2 1167.6 440.5C1167.6 441.5 1168.3 442.1 1169.2 442.1S1170.8 441.5 1170.8 440.5L1170.7 421.3 1182.2 414.5 1180.7 429.6 1192.8 420.6 1192.9 434 1176.3 443.7C1175.3 444.3 1175.3 445.3 1175.6 445.9 1175.9 446.6 1176.9 446.9 1177.9 446.6L1192.9 437.9 1192.9 446.2 1185.6 450.7C1184.6 451 1184.3 452 1184.9 452.9 1185.2 453.6 1186.2 453.9 1187.2 453.6L1192.9 450 1192.9 461.2C1193 462.2 1193.6 462.8 1194.6 462.8S1196.2 462.2 1196.1 461.2L1196.1 450 1201.9 453.2C1202.2 453.5 1202.5 453.5 1202.8 453.5 1203.5 453.5 1203.8 453.2 1204.1 452.9 1204.8 451.9 1204.4 451 1203.5 450.6L1196.1 446.2 1196.1 437.5 1211.1 446.5C1211.5 446.5 1211.8 446.5 1212.1 446.5 1212.7 446.5 1213.1 446.1 1213.4 445.8 1214 444.9 1213.7 443.9 1212.7 443.6L1196.1 434 1196 420.6 1208.2 429.5 1206.6 414.5 1218.1 421.2 1218.2 440.4C1218.2 441.3 1219.1 442 1219.8 442 1220.7 442 1221.4 441.3 1221.4 440.3L1221.3 423.1 1229 427.2 1229 435.8C1229 436.8 1229.7 437.4 1230.6 437.4S1232.2 436.8 1232.2 435.8L1232.2 429.1 1241.8 434.5C1242.1 434.8 1242.5 434.8 1242.8 434.8 1243.1 434.8 1243.7 434.5 1244.1 433.9 1244.4 433.2 1244.4 432.3 1243.4 432ZM1204.4 422.8L1194.4 415.5 1184.5 422.9 1185.8 410.4 1174.5 405.6 1185.7 400.5 1184.4 388.3 1194.4 395.6 1204.3 388.2 1203 400.4 1214.2 405.5 1203 410.3 1204.4 422.8Z" fill="rgba(51, 121, 194, 0.58)"></path><path d="M815.5 160.2L832.6 170.7 821 177.6C819.7 178.2 819 180.1 819.7 182 820.9 183.3 822.8 184 824.1 183.4L839.6 174.6 855.5 184.4 823.9 201.9C821.9 203.2 821.3 205.1 822.5 206.4 823.1 208.3 825 209 827 207.7L861.8 188.4 876.4 196.9 875.9 235.9 863 243.4 826.8 221.2C826.2 221.2 825.5 221.1 824.9 221.1 824.2 221.1 822.9 221.7 822.3 222.4 821 224.3 821.6 226.2 823.5 226.9L856.5 247.2 840.4 255.9 823.2 246.1C823.3 245.4 822.6 245.4 822 245.4 820.7 245.4 819.4 246 818.8 247.3 818.1 248.6 818.7 250.5 820 251.8L833.9 259.7 813.9 270.9C812.7 271.5 812 273.4 812.6 275.4 813.9 276.7 815.8 277.3 817.1 276.7L835.8 266.1 835.6 279.5C835.6 281.4 837.5 282.8 838.7 282.8 840.7 282.8 842.6 281.5 842.6 279.6L842.9 262.3 859 253.6 858.5 289.4C858.5 291.4 859.7 292.7 861.6 292.7 863.6 292.7 864.9 291.5 864.9 289.5L865.4 249.9 879 241.7 912.6 262 912.4 276.8 876.9 296.7C875 297.4 874.3 299.9 875.6 301.2 876.2 303.1 878.1 303.2 880.1 302.6L912.3 284.4 912.1 303 895.9 311.7C894.6 312.4 894 314.9 894.6 316.2S897.8 318.2 899.7 317.5L912 310.7 911.6 333.1C911.6 335 913.5 336.3 915.4 336.3 916.7 336.3 918.7 335.1 918.7 333.2L919 310.8 931.7 318C933 318.7 934.9 318.7 936.2 316.8 936.8 315.5 936.2 312.9 935 312.3L919.1 303.1 919.4 284.5 951.1 303.5C953 304.2 954.9 304.2 956.2 302.3 956.9 301.1 956.3 298.5 955 297.8L919.5 276.9 919.7 262.1 953.9 242.8 967.2 251.3 966.6 291C966.6 292.9 967.9 294.2 969.8 294.2 971.7 294.2 973.6 293 973.7 291.1L974.2 255.2 990 264.4 989.8 281.7C989.8 283.6 991 284.9 993 284.9 994.9 285 996.2 283.7 996.2 281.8L996.4 268.3 1014.8 279.5C1016.1 280.1 1018.6 279.5 1019.3 278.3 1020 276.3 1020 274.4 1018.1 273.8L999 262 1012.6 254.5C1013.9 253.2 1014.6 251.3 1013.9 250 1013.3 248.7 1012 248.1 1010.8 248.1 1010.8 248.1 1010.1 248 1009.5 248.7L992.1 258 976.2 248.8 1009.7 229.5C1011.7 228.9 1012.3 227 1011.1 225 1010.4 224.4 1009.8 223.7 1008.5 223.7 1007.9 223.7 1007.3 223.7 1006.6 223.7L969.8 244.9 957.1 237.1 957.7 198 972.5 189.9 1006.8 210.2C1008.7 211.5 1010.6 210.9 1011.3 209 1012.6 207.8 1012 205.8 1010.1 204.5L979 186.2 995.1 176.8 1010.3 186C1011.6 186.6 1013.5 186 1014.8 184.7 1015.5 182.8 1015.5 180.9 1013.6 180.2L1002.2 173 1019.6 163C1021.6 162.4 1021.6 160.5 1021 158.6 1020.3 157.9 1019.1 157.3 1017.8 157.3 1017.8 157.3 1017.1 157.3 1016.5 157.2L997.8 167.9 998 151.9C998 150.6 996.8 148.6 994.9 148.6 992.9 148.6 991.6 150.5 991.6 151.8L991.3 171.6 975.2 181 975.8 142C975.8 140 973.9 138.7 972 138.7S968.7 139.9 968.7 141.9L968.1 184.7 954.6 192.2 920.9 171.9 921.2 155.3 957.3 135.3C958.6 134 959.3 132.1 958.6 130.2 958 129.5 956.7 128.9 955.5 128.9 954.8 128.9 954.2 128.8 953.5 129.5L921.3 147.6 921.5 129 937.7 119.7C939 119 939.6 117.1 939 115.2 937.7 113.9 935.8 113.2 934.5 113.9L921.6 121.4 921.9 100.9C921.9 99.6 920 97.6 918.8 97.6 916.8 97.6 914.9 99.5 914.9 100.8L914.6 121.3 902.5 113.4C901.9 113.4 901.3 113.4 900.6 113.4 899.3 113.4 898.1 114 897.4 114.6 896.7 116.5 897.4 118.5 898.6 119.8L914.5 128.9 914.2 147.5 882.5 128.5C880.6 127.2 878.7 127.8 878 129.1 876.7 131 877.3 132.9 878.6 134.2L914.1 155.2 913.9 171.8 879.7 191.2 866.4 183.3 867 140.4C867 138.5 865.7 137.2 863.8 137.2 861.9 137.2 860.6 138.4 860.6 140.3L860 179.4 844.2 169.6 844.4 149.7C844.5 148.4 842.6 146.5 840.6 146.5 838.7 146.4 837.4 148.3 837.4 149.6L837.2 165.6 818.8 154.5C818.1 154.5 818.1 154.5 817.5 154.5 816.2 154.4 814.9 155.1 814.3 155.7 813.6 157.6 814.2 159.5 815.5 160.2ZM913.8 179.5L917.7 177.6 920.8 179.6 948.1 196 951.3 197.9 951.2 201.8 950.8 233.1 950.7 237 947.5 238.8 919.8 254.5 916.6 256.3 912.7 254.4 886.1 238 882.3 236 882.3 232.2 882.8 200.8 882.8 197 886.7 195.1 913.8 179.5Z" fill="rgba(51, 121, 194, 0.58)"></path><path d="M458.3 175.7L418.1 210.4 370.9 206.6 397.7 167.7 450 158.4C450 158.4 450.6 158.1 450.6 158.1 451.7 157.6 452.4 155.9 452.4 154.4 452.1 152.4 450.2 151.2 448.4 152.1L402.7 160.3 415.7 141.4 435.8 137.5C435.8 137.5 436.4 137.2 436.4 137.2 437.6 136.7 438.2 135 438.2 133.5 438 131.5 436 130.3 434.2 131.2L420.5 133.5 430.2 119.6C431.1 118.5 430.5 115.9 429.4 115 428 113.6 425.7 114.7 424.8 115.8L415.1 129.6 412.8 115.9C412.5 113.8 410.6 112.7 408.8 113.5 406.8 113.7 405.6 115.7 406.5 117.4L410.4 137.6 397.1 155.9 388.9 110.2C388.6 108.2 386.6 107 384.9 107.9 382.9 108.1 381.7 110.1 382.5 111.8L391.8 164.1 365 203.1 344.4 159.7 362.2 109.4C362.9 107.7 362 106 360.3 105.4 358.6 104.8 356.9 105.6 356.3 107.3L340.5 151.6 330.6 130.8 337.3 112.1C337.9 110.4 337.1 108.6 335.4 108 333.7 107.4 331.9 108.2 331.3 109.9L326.8 122.7 319.1 106.5C318.8 104.5 316.5 104.2 314.8 105 313.1 105.8 312.5 107.6 313.3 109.3L320.4 124.3 307.6 119.8C305.9 119.2 304.2 120 303.6 121.7S303.8 125.1 305.5 125.7L324.3 132.4 334.2 153.2 289.8 137.4C288.1 136.8 286.4 137.7 285.8 139.4 285.2 141.1 286 142.8 287.7 143.4L338 161.3 358.4 204.1 311.2 200.3 277.6 161C276.2 159.5 274.2 159.8 272.5 160.6 271 162 271.3 164 272.1 165.7L302.3 201 279.4 199.1 266.3 183.4C264.9 181.9 262.9 182.1 261.2 183 259.7 184.4 259.9 186.4 260.5 187.5L269.7 198 252.9 196.8C251.4 196.8 249.1 197.9 249.4 199.9 249.6 201.9 250.4 203.6 252.4 203.4L269.3 204.6 258.8 213.8C257.4 215.2 257.6 217.2 258.2 218.4 259.3 219.3 261 219.9 262.1 219.3 262.1 219.3 262.7 219.1 262.7 219.1L278.4 205.9 301.3 207.8 266.1 238C264.6 239.4 264.9 241.4 265.4 242.6 266.5 243.5 268.2 244.1 269.4 243.5 269.4 243.5 270 243.3 270 243.3L310.2 208.6 357.3 212.4 330.5 251.3 278.2 260.6C276.2 260.8 275 262.8 275.8 264.6 276.1 266.6 278.1 267.8 279.8 266.9L325.5 258.7 312.5 277.6 292.4 281.5C290.4 281.7 289.2 283.7 290 285.5 290.3 287.5 292.2 288.6 294 287.8L307.8 285.5 298 299.4C297.2 300.5 297.7 303.1 298.8 304 299.9 304.8 301.4 304.9 302.5 304.3 303.1 304 303.7 303.8 304 302.9L313.7 289.1 316 302.9C316.3 304.9 318.2 306.1 320 305.2 320 305.2 320.6 305 320.6 305 321.7 304.4 322.3 302.7 322.3 301.3L318.4 281.2 331.4 262.2 339.7 307.9C339.9 309.9 341.9 311.1 343.6 310.3 343.6 310.3 344.2 310 344.2 310 345.4 309.5 346 307.8 346 306.3L336.7 254 363.6 215.1 383.9 257.8 366 308.2C365.4 309.9 366.2 311.6 367.9 312.2 369.6 312.8 371.4 312 372 310.3L388 266.5 397.9 287.3 391.2 306.1C390.6 307.8 391.5 309.5 393.2 310.1S396.6 309.9 397.2 308.2L401.8 295.4 408.9 310.4C409.7 312.2 411.4 312.8 413.2 312 414.9 311.1 415.5 309.4 414.7 307.7L407.5 292.7 420.3 297.2C421.2 297.5 422 297.8 423.2 297.3S424.6 295.9 425 295C425.6 293.3 424.7 291.6 423 291L404.3 284.3 394.4 263.5 438.7 279.3C439.6 279.6 440.4 279.9 441.6 279.3 442.2 279 443 277.9 443.3 277.1 444 275.4 443.1 273.6 441.4 273L391.1 255.1 370.8 212.4 417.9 216.2 452.6 256.4C453.8 257.2 455.5 257.8 456.6 257.3 456.6 257.3 457.2 257 457.2 257 458.7 255.6 458.4 253.6 457.9 252.5L427.7 217.2 450.5 219.1 463.7 234.8C464.8 235.7 466.5 236.3 467.6 235.8 467.6 235.8 468.2 235.5 468.2 235.5 469.7 234.1 469.4 232.1 468.9 230.9L459.7 220.4 476.5 221.6C477.1 221.3 477.9 221.7 478.5 221.4 479.7 220.8 480.6 219.7 480.6 218.3 480.3 216.3 479.5 214.5 477.5 214.8L460.6 213.6 471.1 204.3C472.6 202.9 472.4 200.9 471.8 199.8 470.4 198.3 468.4 198.6 467.2 199.1L451.5 212.2 428.6 210.4 463.9 180.1C465.4 178.7 465.1 176.7 464.6 175.6 462 174.7 459.7 174.3 458.3 175.7Z" fill="rgba(51, 121, 194, 0.58)"></path><path d="M167.4 381.9L199 386.5 205.8 396 195.1 394.4C194 394 193.2 394.9 192.7 396 192.8 396.9 193.5 398.1 194.4 398.1L209.1 400.5 216 409.7 204.6 410.8 193 401.4C193 401.4 192.6 401.2 192.6 401.2 191.9 400.9 190.8 401.3 190.2 401.9 189.7 403 189.7 403.9 190.7 404.7L199.1 411.4 187.7 412.6 162.6 392.9C162.6 392.9 162.4 392.4 162.4 392.4 161.7 392.1 160.6 392.5 160 393.1 159.1 394 159.4 395.4 160.5 395.9L182.2 413.2 168.3 415 158.6 407.3C158.6 407.3 158.6 407.3 158.2 407.1 157.5 406.8 156.6 406.9 155.9 407.4 155.4 408.5 155.3 409.8 156.2 410.6L162.8 415.7 152.6 416.9C151.4 416.8 150.9 417.9 150.9 418.8 150.8 420.1 151.8 420.9 153.2 420.7L163.2 419.8 157.9 425.8C157.4 426.9 157.3 428.1 158.4 428.6 159.4 429.5 160.3 429.4 161.1 428.5L168.8 418.8 182.6 417.3 165.1 439.4C164.4 440 164.7 441.4 165.6 442.2 166.3 442.5 167.6 442.7 168.4 441.7L188.1 416.7 199.5 415.5 192.8 424C191.9 424.9 192.3 425.9 193.3 426.8 193.8 427.5 195.3 427.2 195.9 426.7L205 414.9 216.6 413.4 211.9 424 198.2 429.4C197.2 429.8 196.7 430.9 197.1 432 197.2 432.9 198.6 433.5 199.7 433.1L209.7 429.2 205.1 439.8 175.2 451.2C174.1 451.6 173.7 452.7 174.1 453.8 174.5 454.8 175.6 455.3 176.7 454.9L202.8 444.9 197.4 457.4 185.8 461.9C184.7 462.4 184.3 463.5 184.7 464.5 185.1 465.6 186.2 466 187.2 465.6L195 462.9 191 472.1C190.5 473.2 190.9 474.2 192 474.7 193.1 475.2 194.2 474.8 194.7 473.7L198.7 464.5 201.5 471.9C202 472.9 203.1 473.4 204.1 473S205.6 471.5 205.2 470.4L200.9 459.4 206.5 446.5 216.6 472.3C217 473.4 218.1 473.8 219.2 473.4 220.2 473 220.7 471.9 220.3 470.9L208.7 441.4 213.4 430.7 217.3 440.8C217.7 441.8 218.8 442.3 219.9 441.9 220.9 441.5 221.4 440.4 221 439.3L215.6 425.6 220.1 415.3 226.6 424.3 224.5 439.1C224.6 440 225.4 441.2 226.3 441.2 227.5 441.3 228.2 440.7 228.7 439.6L230.3 429 236.8 437.9 232.2 469.5C232.1 470.8 232.7 471.5 233.8 471.9 235.1 472.1 235.9 471.1 236.2 470.4L240.5 442.6 248.6 454 246.9 465.9C246.4 467 247.4 467.8 248.5 468.3 249.4 468.3 250.6 467.5 250.7 466.2L251.9 458.5 258 466.4C258.5 467.4 259.7 467.5 260.9 466.8 261.6 466.2 261.7 464.9 261.2 464.2L255.2 456 263.3 457.3C264.6 457.4 265.4 456.5 265.4 455.6 265.8 454.5 265.3 453.8 264.5 453.5 264.2 453.3 264.2 453.3 263.8 453.2L251.9 451.5 243.8 440.1 271.2 444.2C272.3 444.7 273.2 443.7 273.6 442.6 273.6 441.7 273 441 272.3 440.7 271.9 440.6 271.9 440.6 271.9 440.6L240.1 435.4 233.5 426.5 244.2 428C245.5 428.2 246.1 427.6 246.6 426.5 246.6 425.6 246.2 424.5 245.4 424.2 245.1 424.1 245.1 424.1 244.7 423.9L229.9 421.8 223.3 412.8 234.4 411.5 246.1 420.6C247.1 421.4 248.5 421.2 249.2 420.6 249.7 419.5 249.8 418.3 248.7 417.8L240.3 411.1 251.5 409.4 276.7 429.6C277.3 430.2 278.7 430 279.4 429.4 279.9 428.3 280 427.1 279 426.2L257.3 408.9 271.1 407.5 280.4 415C281.4 415.9 282.8 415.6 283.3 414.5 283.9 414 284.1 412.7 283.1 411.8L276.6 406.8 286.7 405.6C287.6 405.5 288.5 404.6 288.6 403.3 288.4 402.8 287.8 402.1 287.1 401.8 287.1 401.8 286.7 401.6 286.3 401.5L276.2 402.7 281.2 396.2C281.9 395.6 281.6 394.2 281.1 393.5 280.7 393.3 280.7 393.3 280.7 393.3 279.6 392.9 278.6 393.3 278.2 394L270.7 403.4 256.8 405.2 274.3 383.1C274.7 382 274.7 381.1 273.8 380.3 273.8 380.3 273.4 380.1 273.4 380.1 272.7 379.8 271.8 379.8 270.9 380.8L250.9 405.7 239.9 407 246.6 398.5C247.1 397.4 247.2 396.2 246.1 395.7 246.2 395.3 245.9 395.2 245.9 395.2 245.1 394.9 244.1 395.3 243.4 395.8L234.3 407.6 222.9 408.7 227.4 398.5 241.1 393.1C242.2 392.7 242.8 391.2 242.4 390.2 241.8 389.5 240.7 389 239.8 389.1L229.7 393.3 234.3 382.7 263.8 371.1C264.8 370.7 265.3 369.6 264.9 368.6 264.5 367.5 263.4 367 262.3 367.4L236.5 377.6 242.1 364.7 253.2 360.4C254.2 360 254.7 358.9 254.3 357.8S252.8 356.3 251.7 356.7L244.4 359.6 248.4 350.4C248.8 349.3 248.4 348.3 247.3 347.8 246.2 347.3 245.2 347.7 244.7 348.8L240.7 358 237.4 350.5C237.2 350 237 349.4 236.6 349.3 236.3 349.1 235.4 349.2 234.9 349.4 233.8 349.8 233.3 350.9 233.7 351.9L238.5 363.1 232.9 376 222.4 350C222.2 349.5 221.9 349 221.6 348.8 221.2 348.7 220.3 348.7 219.8 348.9 218.7 349.3 218.3 350.4 218.7 351.5L230.6 381.1 226 391.7 222.2 381.4C222 380.9 221.3 380.5 220.9 380.4 220.5 380.2 220.2 380.1 219.7 380.3 218.6 380.7 218 382.1 218.5 382.8L223.8 396.9 219.3 407.1 212.3 398 214.8 383.4C214.8 382.5 214.3 381.4 213.6 381.1 213.2 381 213.2 381 213.1 381.3 212 380.8 210.8 381.6 210.7 382.9L209.1 393.5 202.1 384.4 207.3 352.6C207.2 351.7 206.6 351 205.9 350.7 205.5 350.6 205.5 350.6 205.5 350.6 204.3 350.4 203.2 350.9 203.1 352.1L198.9 379.9 190.7 368.5 192.4 356.6C192.5 355.4 192 354.7 191.2 354.3 191.2 354.3 190.9 354.2 190.9 354.2 189.6 354.1 188.8 355 188.4 355.8L187.4 364 181.5 355.8C181.1 355.6 180.7 355.4 180.4 355.3 180 355.1 179.1 355.2 178.6 355.4 177.7 356.3 177.2 357.4 178.2 358.3L184.2 366.5 176 365.2C174.8 365.1 173.9 366 173.6 366.7 173.5 368 174.4 368.8 175.5 369.3L187.5 371 195.7 382.1 168.3 377.9C167 377.8 165.8 378.6 165.9 379.5 165.8 380.8 166.2 381.8 167.4 381.9Z" fill="rgba(51, 121, 194, 0.58)"></path><path d="M621.9 372.3L671.1 391.7 677.3 404.9 658 431.3 643.1 429.9 610.1 388.3C609.6 387.9 609.6 387.9 609.1 387.5 608.1 386.8 606.6 386.5 605 387.7 603.9 389.2 603.6 390.6 604.8 392.3L633.7 428.6 610.9 426.2 598 410.3C598 410.3 597.4 409.9 597.4 409.9 596.4 409.2 595 408.9 593.3 410.1 592.1 410.7 592 413.1 593.1 414.7L601.2 425.4 584.4 423.4C583 423.1 581.3 424.3 580.7 426.2S582.2 429.7 584.1 430.3L600.4 431.9 590.2 440.3C588.6 441.5 588.5 443.8 589.6 445.5 590.7 446.2 592.6 446.8 594.2 445.7L610.1 432.7 633.4 435.5 597.1 464.5C595.5 465.6 595.4 467.9 596 469.2 597.6 470.3 599.5 471 601.2 469.8L642.3 436.4 657.7 438.2 670.4 467.4 661.3 479.7 609 488.3C607.3 488.5 606.1 490.1 606.4 491.9S608.2 494.8 610 494.5L656 487 642 506.1 622.3 509.1C620.5 509.4 619.4 510.9 619.3 513.2S621.1 516.2 622.9 515.9L636.7 513.3 626.5 527.2C625.4 528.8 626.2 531 627.7 532.1 629.3 533.2 631 532.9 632.2 531.4L642.4 517.5 644.5 530.9C644.4 533.2 645.9 534.3 648.1 533.5 649.9 533.3 651 531.7 650.7 529.9L647.7 510.2 661.7 491.1 668.3 537.3C668.6 539.1 670.7 540.6 672.5 540.3S675.4 538.5 675.1 536.7L667 483.9 676.1 471.5 708.2 475.3 714 489 694.6 538.3C694 540.2 695.1 541.8 696.7 543 698.6 543.6 700.3 542.4 701.4 540.9L718.1 497.6 727.3 518.6 719.7 537.6C719.1 539.5 720.2 541.2 721.8 542.3 723.2 542.6 725.4 541.8 726 539.8L731 527.6 737.9 543C738.6 544.3 740.5 544.9 742.3 544.7 743.9 543.5 744.6 541.6 743.9 540.3L736.9 524.9 750.1 529.7C751.5 530 753.6 529.2 753.9 527.8 755 526.2 754.4 524.9 752.8 523.8 752.8 523.8 752.3 523.4 752.3 523.4L733.3 515.8 724.1 494.8 767.4 511.5C769.3 512.1 771.1 511.8 771.7 509.9 772.3 508 771.7 506.7 770.7 505.9 770.1 505.6 770.1 505.6 770.1 505.6L720 486.3 714.2 472.5 733.5 446.2 748 448.1 781.9 489.6C782.5 490.8 784.8 490.9 786.1 490.3 787.8 489.1 787.9 486.8 786.7 485.2L757.7 448.9 780.6 451.3 793.5 467.2C794.7 468.8 796.6 469.4 797.8 467.9 799.4 466.7 799.5 464.4 798.9 463.1L789.9 452.6 806.7 454.6C808.5 454.3 810.1 453.2 810.8 451.2 810.6 450.3 810 449.1 808.9 448.3 808.4 447.9 808.4 447.9 807.5 448.1L790.7 446.1 801.3 437.1C802.9 435.9 802.6 434.2 802 432.9 801.5 432.5 801.5 432.5 801 432.1 799.9 431.4 798.5 431.1 797.2 431.8L781.4 444.8 758.6 442.3 794.9 413.4C796 411.8 796.6 409.9 795.1 408.8 794.9 407.9 794.9 407.9 794.4 407.5 793.4 406.7 791.6 407 790.3 407.7L748.8 441.5 734.3 439.6 721.1 410.1 729.8 398.2 782.6 390.1C784.4 389.8 785.9 387.8 785.6 386S783.3 382.7 781.5 382.9L735.5 390.5 749.1 371.9 769.1 368.3C770.9 368.1 772.1 366.5 771.8 364.7 771.5 362.9 770 361.8 768.2 362.1L754.8 364.2 765 350.2C765.7 349.2 765.8 346.9 764.3 345.7 762.7 344.6 760.1 345 759.3 346.1L749.1 360 747 346.6C746.9 345.7 746.7 344.8 746.2 344.4 745.2 343.7 744.3 343.8 743.4 343.9 741.6 344.2 740.5 345.8 740.8 347.5L743.4 367.7 729.8 386.3 723.1 340.2C723 339.3 722.5 338.9 721.5 338.2 720.9 337.8 720.4 337.4 719.5 337.5 717.7 337.8 716.2 339.9 716.5 341.7L724.1 394.1 715.4 405.9 683.8 402.6 677.1 388.9 696.9 339.2C697.1 337.8 696.9 336 695.8 335.2 695.3 334.9 695.3 334.9 694.9 335.4 693.4 334.2 691.2 335 690.6 337L673.9 380.3 664.2 358.9 671.8 339.8C672 338.4 671.4 337.2 670.4 336.4 670.4 336.4 669.8 336 669.8 336 668.3 334.9 666.1 335.7 665.5 337.6L660.7 350.7 653.7 335.3C653.6 334.4 653.1 334 652.5 333.7 651.5 332.9 650.1 332.7 649.7 333.2 647.5 334 646.9 335.9 647.2 337.7L654.2 353.1 641.9 348.1C640 347.5 637.8 348.3 637.2 350.2 637 351.6 637.8 353.8 639.2 354L658.2 361.6 667.4 382.7 624.1 366C622.2 365.4 620.5 366.5 619.4 368.1 619.1 369.5 619.9 371.7 621.9 372.3ZM665.9 432.3L680.7 412.2 682.9 409.1 686.7 409.5 710.9 412.1 715.1 412.8 716.6 416.3 726.4 438.6 727.8 442 725.6 445.1 710.8 465.3 708.5 468.3 704.8 468 680.6 465.3 676.9 465 674.9 461.2 665.1 438.9 663.6 435.4 665.9 432.3Z" fill="rgba(51, 121, 194, 0.58)"></path><path d="M635.3 105.2L608.8 106 591.7 89.7 614.4 83 637.6 95.9C637.6 95.9 637.9 95.9 637.9 95.9 638.5 96.1 639.3 95.6 639.8 95.1 640.3 94.2 639.9 93.1 639 92.9L618.6 81.7 629.6 78.5 638.7 83.3C638.7 83.3 639 83.4 639 83.4 639.6 83.5 640.4 83 640.8 82.5 641.4 81.6 641 80.5 640 80.3L634 76.9 642.1 74.6C642.8 74.4 643.4 73.2 643.2 72.5 643.1 71.5 641.9 71.2 641.2 71.4L633.1 73.7 636.5 67.6C637.1 66.8 636.7 65.7 635.7 65.5 634.9 64.9 633.8 65.3 633.6 66.2L628.7 75.3 617.8 78.2 629 57.9C629.5 57 629.1 56 628.2 55.7 627.4 55.2 626.3 55.6 626 56.5L613.2 79.7 590.5 86.4 596.1 63.1 618.9 49.2C619.7 48.7 619.9 47.8 619.5 47 619 46.3 618 46 617.3 46.5L597.2 58.8 599.9 47.6 608.4 42.4C609.2 41.9 609.4 41 608.9 40.2 608.5 39.4 607.5 39.2 606.7 39.7L600.9 43.2 603.1 34.5C603.6 33.6 602.8 32.8 601.9 32.6 600.9 32.3 600.2 32.8 599.9 33.7L598 41.8 594.5 36C594 35.3 593.1 35 592.3 35.5S591.3 36.9 591.8 37.7L596.9 46.2 594.2 57.4 582 37.3C581.5 36.5 580.6 36.3 579.8 36.8 579 37.2 578.8 38.2 579.3 38.9L593.2 61.7 587.6 84.7 570.5 68.4 569.8 42.6C569.7 41.6 568.9 41 567.9 40.8 566.9 40.9 566.4 41.8 566.2 42.7L566.8 65.9 558.5 58 558.4 47.7C558.3 46.7 557.4 46.2 556.5 45.9 555.5 46 555 46.9 554.8 47.5L555.1 54.5 548.9 48.7C548.4 48.3 547.1 48 546.6 48.8 546 49.7 545.8 50.6 546.7 51.1L552.9 56.9 545.9 57.2C544.9 57.3 544.3 58.1 544.2 58.8 544.3 59.5 544.8 60.2 545.4 60.4 545.4 60.4 545.7 60.5 545.7 60.5L556 60.3 564.3 68.2 541.1 68.9C540.1 69 539.5 69.8 539.4 70.4 539.5 71.1 540 71.9 540.6 72.1 540.6 72.1 540.9 72.1 540.9 72.1L567.5 71.3 584.6 87.6 561.9 94.3 538.7 81.5C537.8 80.9 536.7 81.3 536.5 82.3 536 83.1 536.4 84.2 537.3 84.4L557.6 95.6 546.6 98.9 537.6 94C536.7 93.5 535.7 93.9 535.4 94.8 534.9 95.7 535.3 96.8 536.2 97L542.3 100.5 534.2 102.8C533.5 102.9 532.9 104.1 533 104.8 533.2 105.5 533.7 106 534.4 106.1 534.7 106.2 535 106.3 535.4 106L543.5 103.7 540.1 109.8C539.5 110.6 539.9 111.7 540.8 112 540.8 112 541.2 112 541.2 112 541.8 112.2 542.6 111.7 543 111.2L547.8 102.1 558.8 98.9 547.7 119.2C547.1 120.1 547.5 121.1 548.4 121.4 548.4 121.4 548.8 121.4 548.8 121.4 549.4 121.6 550.1 121.1 550.6 120.6L563.5 97.3 586.2 90.7 580.6 113.7 557.8 127.6C557 128.1 556.8 129 557.3 129.8 557.7 130.5 558.7 130.8 559.5 130.3L579.5 118.3 576.8 129.5 568.3 134.7C567.5 135.2 567.3 136.1 567.7 136.9S569.1 137.9 569.9 137.4L575.7 133.9 573.7 142C573.5 142.9 574 143.7 574.9 143.9 575.9 144.1 576.6 143.7 576.9 142.7L578.8 134.6 582.3 140.4C582.6 140.8 582.8 141.2 583.4 141.4S584.4 141.3 584.8 141C585.6 140.6 585.8 139.6 585.4 138.9L580.2 130.4 582.9 119.2 595.1 139.3C595.4 139.6 595.6 140 596.2 140.2 596.5 140.3 597.2 140.1 597.6 139.9 598.4 139.4 598.6 138.5 598.2 137.7L584.3 114.9 589.8 91.9 606.9 108.2 607.8 134.7C607.9 135.4 608.4 136.2 609 136.4 609 136.4 609.3 136.4 609.3 136.4 610.3 136.3 610.9 135.5 611 134.9L610.4 111.7 618.7 119.6 618.8 129.8C619 130.5 619.5 131.3 620.1 131.5 620.1 131.5 620.4 131.5 620.4 131.5 621.4 131.5 621.9 130.6 622.1 130L621.8 123 628 128.8C628.3 128.8 628.5 129.2 628.8 129.3 629.5 129.5 630.2 129.3 630.6 128.7 631.2 127.9 631.4 127 630.5 126.4L624.3 120.6 631.3 120.4C632.3 120.3 632.9 119.4 633 118.8 632.9 117.8 632.1 117.2 631.5 117.1L621.2 117.3 612.9 109.3 636.1 108.7C637.1 108.6 637.7 107.7 637.8 107.1 637.1 106 636.3 105.1 635.3 105.2Z" fill="rgba(51, 121, 194, 0.58)"></path><path d="M829.8 431.8L854.7 423 861.4 426 862.7 442.3 856.6 446.6 830.6 441.7C830.2 441.7 830.2 441.7 829.9 441.7 829.3 441.8 828.7 442.2 828.4 443.1 828.5 444.1 828.9 444.7 829.9 444.9L852.7 449.2 843.3 455.7 833.2 454C833.2 454 832.9 454 832.9 454 832.2 454.1 831.6 454.4 831.4 455.4 831.1 456.1 831.8 457 832.8 457.2L839.3 458.6 832.3 463.4C831.7 463.7 831.5 464.7 831.9 465.6S833.6 466.5 834.5 466.1L841.2 461.4 840.1 467.9C839.8 468.8 840.6 469.8 841.5 470 842.2 469.9 843.1 469.5 843.4 468.6L845.1 458.5 854.8 451.9 850.6 474.7C850.4 475.7 851.1 476.6 851.7 476.9 852.7 476.8 853.6 476.4 853.9 475.4L858.5 449.3 864.9 445 879.2 451.8 879.9 459.5 862.9 479.8C862.3 480.5 862.4 481.5 863.1 482S864.7 482.5 865.3 481.9L880.2 463.9 881.2 475.7 874.7 483.3C874.2 484 874.2 485 875 485.9S876.6 486.4 877.2 485.7L881.6 480.2 882.3 488.8C882.3 489.8 883.3 490.3 884.3 490.3 885.3 490.2 885.8 489.5 885.8 488.5L885.1 479.9 890.2 484.3C891 485.2 891.9 485.1 892.5 484.1 893.1 483.4 893 482.5 892.3 481.9L884.7 475.5 883.7 463.7 901.4 478.9C902 479.5 903.3 479.4 903.9 478.7S904.4 477 903.7 476.5L883.4 459.2 882.7 451.5 896.1 442.4 902.8 445.7 911.6 470.7C912 471.6 913 471.9 913.9 471.8 914.9 471.4 915.1 470.4 915 469.4L907.1 447.6 917.5 452.5 920.9 462.2C921.3 463.1 922.2 463.4 923.2 463.3 923.8 462.9 924.4 461.9 924 461L921.9 454.8 929.5 458.3C930.2 458.6 931.1 458.2 931.7 457.5 931.9 456.5 931.5 455.6 930.9 455.3L923.2 451.8 929.8 449.3C930.4 448.9 930.9 447.9 930.6 447.3 930.5 446.3 929.8 446.1 928.9 446.2 928.9 446.2 928.5 446.2 928.5 446.2L918.9 449.5 908.5 444.6 930.3 436.7C931.3 436.3 931.8 435.6 931.4 434.7 931 433.8 930.4 433.5 929.7 433.6 929.4 433.6 929.4 433.6 929.4 433.6L904.2 442.7 897.5 439.4 896.1 423.1 902.2 419.1 928.6 423.7C929.3 424 930.2 423.2 930.5 422.6 930.7 421.6 930 420.7 929 420.5L906.2 416.2 915.6 409.7 925.7 411.4C926.7 411.7 927.6 411.3 927.5 410.3 927.8 409.3 927 408.4 926.4 408.1L919.6 407.1 926.6 402.4C927.1 401.7 927.4 400.7 927 399.7 926.6 399.5 926 399.2 925.3 399.2 925 399.3 925 399.3 924.7 399.6L917.7 404.4 918.8 397.5C919 396.5 918.3 396 917.7 395.7 917.3 395.7 917.3 395.7 917 395.7 916.4 395.8 915.8 396.2 915.5 396.8L913.8 406.9 904.3 413.5 908.6 390.7C908.5 389.7 908.1 388.8 907.1 388.9 906.8 388.6 906.8 388.6 906.5 388.6 905.8 388.6 905.3 389.3 905 390L900.4 416.4 894.3 420.4 879.6 413.6 879 406.2 896.3 385.9C896.9 385.2 896.8 383.9 896.1 383.3S894.1 382.9 893.5 383.5L878.6 401.5 877.7 390 884.1 382.1C884.7 381.4 884.6 380.4 883.9 379.8 883.2 379.2 882.3 379.3 881.7 380L877.3 385.2 876.6 376.6C876.6 375.9 875.8 375 874.9 375.1 873.9 375.2 873 376.2 873.1 376.9L873.8 385.5 868.6 381.1C868.3 380.8 867.9 380.5 867.6 380.5 867 380.6 866.7 380.9 866.4 381.3 865.8 382 865.9 382.9 866.6 383.5L874.2 390.3 875.1 401.7 857.5 386.5C857.2 386.2 856.8 386.2 856.2 386.3 855.9 386.3 855.6 386.3 855.3 386.7 854.7 387.4 854.8 388.6 855.5 389.2L875.5 406.5 876.1 413.9 863.1 423 856.1 420 847.3 394.7C846.9 394.1 846.2 393.5 845.6 393.6 845.2 393.6 845.2 393.6 845.3 393.9 844.3 394 843.8 395 844.2 395.9L852 417.8 841.4 412.9 838 403.2C837.6 402.6 837 402.3 836.3 402.4 836.3 402.4 836 402.4 836 402.4 835.1 402.5 834.5 403.5 834.9 404.4L837.4 410.9 829.7 407.4C829.3 407.1 829 407.1 828.7 407.2 828.1 407.2 827.4 407.6 827.5 407.9 826.9 408.9 827.3 409.8 828 410.4L835.7 414 829.4 416.1C828.5 416.5 827.9 417.5 828.3 418.4 828.7 419 829.7 419.6 830.3 419.2L840 415.9 850.4 420.8 828.5 428.7C827.6 429.1 827.4 430.1 827.4 431 827.8 431.6 828.8 432.2 829.8 431.8ZM866.1 440.1L865 427.6 864.9 425.7 866.4 424.6 876.4 417.7 878.3 416.6 879.9 417.4 891 422.6 892.6 423.4 892.8 425.3 893.8 437.8 894 439.7 892.5 440.8 882.4 447.7 880.9 448.8 878.9 448 867.9 442.8 866.2 442 866.1 440.1Z" fill="rgba(51, 121, 194, 0.58)"></path></g><defs><mask id="SvgjsMask2753"><rect width="1440" height="560" fill="#ffffff"></rect></mask><filter id="SvgjsFilter2754"><feGaussianBlur stdDeviation="1"></feGaussianBlur></filter></defs></svg>