<?xml version="1.0" encoding="UTF-8" standalone="no"?>
<!DOCTYPE svg PUBLIC "-//W3C//DTD SVG 1.1//EN" "http://www.w3.org/Graphics/SVG/1.1/DTD/svg11.dtd">
<svg xmlns="http://www.w3.org/2000/svg" version="1.1" viewBox="0 0 203 235">
<path fill="#ffffff" d="
  M 188.98 102.45
  C 209.03 114.97 206.20 143.66 183.57 151.13
  Q 182.89 151.35 183.21 150.71
  L 193.36 130.84
  A 0.41 0.40 -76.5 0 0 193.00 130.25
  L 178.70 130.25
  A 0.39 0.39 0.0 0 1 178.34 129.72
  L 186.71 107.07
  A 0.43 0.42 10.1 0 0 186.31 106.50
  L 151.57 106.50
  A 0.58 0.57 7.1 0 0 151.01 106.93
  L 139.00 151.95
  A 0.63 0.62 -82.0 0 1 138.40 152.41
  Q 105.03 152.58 71.77 152.53
  C 43.56 152.49 24.80 123.60 38.61 98.18
  C 48.11 80.68 69.22 74.37 87.09 83.13
  A 0.31 0.31 0.0 0 0 87.52 82.96
  C 107.96 27.25 188.55 42.24 188.57 101.69
  A 0.91 0.88 -74.3 0 0 188.98 102.45
  Z"
/>
<path fill="#fff467" d="
  M 172.78 134.75
  L 186.24 134.75
  A 0.44 0.44 0.0 0 1 186.63 135.39
  L 156.66 193.75
  Q 156.38 194.30 156.37 193.68
  Q 156.33 192.14 156.65 189.43
  Q 158.81 170.99 160.93 152.66
  A 0.40 0.39 -86.7 0 0 160.54 152.22
  L 143.58 152.26
  A 0.48 0.48 0.0 0 1 143.12 151.66
  L 153.89 111.45
  A 0.61 0.61 0.0 0 1 154.48 111.00
  L 180.43 111.00
  A 0.44 0.44 0.0 0 1 180.84 111.59
  L 172.34 134.11
  A 0.47 0.47 0.0 0 0 172.78 134.75
  Z"
/>
<rect fill="#ade8ff" x="-3.00" y="-12.38" transform="translate(144.94,171.62) rotate(15.0)" width="6.00" height="24.76" rx="2.91"/>
<rect fill="#ade8ff" x="-3.00" y="-19.40" transform="translate(66.00,178.50) rotate(15.0)" width="6.00" height="38.80" rx="2.94"/>
<rect fill="#ade8ff" x="-3.00" y="-19.39" transform="translate(113.95,178.68) rotate(15.0)" width="6.00" height="38.78" rx="2.94"/>
<rect fill="#ade8ff" x="-3.00" y="-28.40" transform="translate(126.27,187.38) rotate(15.1)" width="6.00" height="56.80" rx="2.95"/>
<rect fill="#ade8ff" x="-3.00" y="-28.39" transform="translate(78.94,187.63) rotate(15.0)" width="6.00" height="56.78" rx="2.95"/>
<rect fill="#ade8ff" x="-3.00" y="-38.40" transform="translate(93.27,197.30) rotate(15.0)" width="6.00" height="76.80" rx="2.96"/>
</svg>
